<svg width="216" height="169" viewBox="0 0 216 169" fill="none" xmlns="http://www.w3.org/2000/svg">
<path d="M81.4674 107.502C80.1932 107.38 79.1546 106.662 78.3515 105.348C77.5908 104.08 77.2981 102.622 77.4733 100.975C77.6922 98.947 78.1883 96.583 78.9617 93.8827C79.7777 91.1438 80.7639 88.2932 81.9205 85.3307C83.1197 82.3297 84.3822 79.4414 85.7082 76.6658C85.1536 77.3811 84.471 78.2548 83.6605 79.2871C82.8926 80.2807 82.0179 81.4349 81.0365 82.7495L79.8844 84.304C78.9031 85.6187 78.0071 86.7921 77.1966 87.8244C76.386 88.8566 75.6609 89.769 75.021 90.5614C74.9358 90.6386 74.7439 90.8551 74.4454 91.2106C74.1895 91.5276 73.827 91.9625 73.3579 92.5152C72.8887 93.0679 72.3771 93.6379 71.8229 94.2251C71.3113 94.7738 70.7785 95.3204 70.2244 95.865C67.6669 98.4802 65.9422 99.7452 65.0502 99.66C63.7759 99.5809 62.8221 98.9136 62.1888 97.6581C61.5555 96.4026 61.2422 94.7295 61.2489 92.6389C61.2516 91.7855 61.3183 90.853 61.449 89.8411C61.7991 86.6309 62.7045 82.5135 64.165 77.4888L65.6471 72.3808C65.8618 71.6758 66.0125 71.0286 66.0994 70.4394C66.1862 69.8502 66.2517 69.3016 66.2958 68.7937C66.2976 68.239 66.4687 67.8712 66.8092 67.6904C67.1922 67.4709 67.6599 67.3875 68.212 67.4403C68.8066 67.4971 69.3372 67.6758 69.8035 67.9764C70.3124 68.2811 70.5451 68.5807 70.5017 68.8754C70.3717 69.6738 70.1991 70.4896 69.9841 71.3227C69.769 72.1557 69.5113 73.0273 69.211 73.9376C69.1249 74.2708 68.9536 74.7026 68.697 75.2329C68.4829 75.7673 68.2047 76.3809 67.8626 77.0738L67.0926 78.7287C66.1515 80.7301 65.402 82.6218 64.844 84.4037C64.286 86.1856 63.8977 88.0264 63.6792 89.9261C63.6362 90.0928 63.6142 90.3254 63.6133 90.6241C63.6125 90.8801 63.6115 91.1787 63.6104 91.52C63.6063 92.8 63.8158 93.7377 64.2387 94.3329C64.7043 94.8895 65.4255 95.2358 66.4022 95.3718C66.827 95.4124 67.3799 95.2305 68.0609 94.826C68.7845 94.4257 69.5296 93.9207 70.2963 93.3111C71.063 92.7014 71.7873 92.0664 72.4692 91.406C73.1937 90.707 73.7692 90.1004 74.1957 89.5863C76.7544 86.5871 79.1005 83.6743 81.2338 80.8478C83.4097 77.9827 85.2452 75.2985 86.7402 72.7952C88.2777 70.296 89.3468 68.0934 89.9477 66.1876C90.1621 65.5678 90.6728 65.2965 91.4798 65.3736C92.1169 65.4345 92.6896 65.7026 93.198 66.1779C93.7063 66.6533 93.8322 67.1348 93.5757 67.6224L92.4859 69.631C91.3319 71.7828 90.2208 73.8319 89.1524 75.7785C88.1266 77.6864 87.2073 79.5405 86.3943 81.3408L86.3308 81.2707C84.5766 85.115 83.1844 88.6738 82.1543 91.947C81.1668 95.1817 80.5201 98.1502 80.214 100.852C80.1251 102.082 80.2703 103.184 80.6496 104.159C81.0713 105.138 81.6857 105.666 82.4927 105.743C83.5545 105.845 84.6825 105.184 85.8767 103.762C86.3032 103.248 86.6861 103.071 87.0255 103.232C87.1525 103.372 87.2159 103.485 87.2156 103.57C87.2149 103.783 87.1294 103.967 86.9589 104.122C86.0628 105.359 85.1252 106.251 84.1463 106.798C83.2098 107.348 82.3169 107.583 81.4674 107.502ZM29.0227 106.077C26.2194 105.81 23.9925 104.679 22.3419 102.686C20.6911 100.736 19.8709 98.1398 19.8813 94.8971C19.8956 90.4171 21.526 85.4087 24.7726 79.8717C26.9941 76.0721 29.4457 73.34 32.1277 71.6756C34.8522 69.9726 37.4462 69.2388 39.9097 69.4741C42.0758 69.681 43.8576 70.5128 45.255 71.9693C46.6949 73.4299 47.4115 75.1842 47.405 77.2322C47.4001 78.7682 46.949 80.3256 46.0518 81.9044C45.197 83.4872 43.875 85.0255 42.0858 86.519C41.8728 86.7121 41.6601 86.7985 41.4477 86.7782C41.2354 86.7579 41.1296 86.6198 41.1304 86.3638C41.1312 86.1078 41.3021 85.8253 41.6429 85.5165C42.9214 84.3155 43.8812 83.0841 44.5225 81.8223C45.164 80.5179 45.4866 79.2683 45.4904 78.0736C45.4959 76.367 44.9481 74.9276 43.8472 73.7554C42.7465 72.5406 41.3466 71.8521 39.6477 71.6898C37.609 71.495 35.4613 72.1435 33.2048 73.6351C30.9909 75.0881 28.9014 77.492 26.9363 80.8466C23.7747 86.3917 22.1873 91.2122 22.1742 95.3082C22.1659 97.9109 22.7753 99.9963 24.0024 101.565C25.272 103.137 27.0111 104.029 29.2197 104.24C31.216 104.43 33.4477 104.046 35.915 103.087C38.3822 102.127 41.0001 100.564 43.7687 98.3953C47.6021 95.3471 51.1191 91.6499 54.3194 87.3035C55.9409 85.1111 57.1783 83.4367 58.0317 82.2805C58.8851 81.1244 59.3545 80.4863 59.4399 80.3664C60.1224 79.4927 60.8477 78.559 61.6156 77.5654C62.3837 76.5291 63.1945 75.4115 64.048 74.2126C64.1761 74.0115 64.3035 74.045 64.4301 74.3132C64.6413 74.6748 64.6617 74.9541 64.4911 75.1512C63.5096 76.5086 62.3997 78.1524 61.1615 80.0828C59.9658 81.9745 58.5995 84.106 57.0624 86.4772L55.9097 88.2237L55.9734 88.2298C52.5587 93.1958 48.7432 97.2487 44.5271 100.388C41.7162 102.51 38.9709 104.04 36.2913 104.979C33.6542 105.922 31.2313 106.288 29.0227 106.077ZM90.1534 105.515C88.4969 105.357 87.6711 104.531 87.6758 103.038C87.6761 102.952 87.6766 102.803 87.6773 102.59C87.7204 102.38 87.7637 102.128 87.8071 101.834C88.2375 100.125 89.0923 98.5209 90.3717 97.0213C91.6937 95.4831 93.2061 94.1764 94.909 93.1014C95.5477 92.6503 96.5679 92.4916 97.9695 92.6255C98.7765 92.7026 99.4769 92.8976 100.071 93.2103C100.707 93.4845 101.152 93.8685 101.405 94.3621C101.659 94.8132 101.785 95.316 101.783 95.8707C101.783 95.956 101.761 96.082 101.718 96.2486C101.717 96.4192 101.696 96.6092 101.652 96.8185C101.738 96.7839 101.865 96.7748 102.035 96.791C102.247 96.8113 102.502 96.8143 102.8 96.8C103.097 96.7858 103.373 96.7695 103.628 96.7511C103.926 96.7369 104.223 96.7439 104.52 96.7723L104.775 96.7967C105.242 96.8413 105.284 97.0374 104.901 97.3849C104.56 97.6937 104.092 97.8624 103.497 97.891L101.33 97.94C100.902 99.0941 100.155 100.218 99.0889 101.311C98.0657 102.408 96.9156 103.344 95.6386 104.118C94.4041 104.854 93.2343 105.297 92.1292 105.448C91.4916 105.557 90.833 105.58 90.1534 105.515ZM98.3387 96.758C98.5935 96.7824 98.8908 96.8108 99.2306 96.8432C99.613 96.8371 100.038 96.835 100.505 96.8369C100.548 96.7557 100.57 96.5657 100.571 96.267C100.573 95.499 100.256 94.9353 99.6202 94.5757C99.2811 94.33 98.8567 94.1827 98.3471 94.134C97.71 94.0732 97.0509 94.2236 96.37 94.5854C95.7317 94.9085 95.0505 95.3556 94.3264 95.9266C95.2174 96.3105 96.5548 96.5876 98.3387 96.758ZM92.0718 103.458C92.4966 103.498 93.0918 103.363 93.8576 103.052C94.6659 102.702 95.4959 102.227 96.3475 101.625C97.1992 101.024 97.966 100.372 98.6481 99.6684C98.8611 99.4754 99.0743 99.2397 99.2876 98.9613C99.5011 98.6402 99.7357 98.3212 99.9917 98.0042L98.462 98.0502C96.0824 98.1643 93.9581 98.1534 92.0892 98.0176C91.1499 99.4643 90.5724 100.69 90.3568 101.693C90.3125 102.244 90.4599 102.663 90.7989 102.952C91.1378 103.24 91.5622 103.409 92.0718 103.458ZM105.21 106.953C103.553 106.795 102.728 105.969 102.732 104.476C102.733 104.391 102.733 104.241 102.734 104.028C102.777 103.819 102.82 103.567 102.864 103.272C103.294 101.563 104.149 99.9591 105.428 98.4595C106.75 96.9213 108.263 95.6147 109.965 94.5397C110.604 94.0885 111.624 93.9299 113.026 94.0638C113.833 94.1409 114.533 94.3358 115.127 94.6486C115.764 94.9228 116.208 95.3067 116.462 95.8004C116.715 96.2514 116.841 96.7542 116.839 97.3089C116.839 97.3942 116.817 97.5202 116.774 97.6868C116.774 97.8575 116.752 98.0475 116.709 98.2567C116.794 98.2222 116.921 98.213 117.091 98.2293C117.304 98.2495 117.559 98.2525 117.856 98.2383C118.154 98.224 118.43 98.2077 118.685 98.1894C118.982 98.1751 119.28 98.1822 119.577 98.2106L119.832 98.2349C120.299 98.2796 120.341 98.4756 119.957 98.8231C119.616 99.132 119.149 99.3007 118.554 99.3292L116.387 99.3783C115.958 100.532 115.211 101.656 114.145 102.749C113.122 103.847 111.972 104.782 110.695 105.557C109.461 106.292 108.291 106.735 107.186 106.886C106.548 106.996 105.889 107.018 105.21 106.953ZM113.395 98.1963C113.65 98.2206 113.947 98.249 114.287 98.2815C114.669 98.2753 115.094 98.2732 115.562 98.2752C115.604 98.1939 115.626 98.0039 115.627 97.7053C115.63 96.9373 115.313 96.3735 114.677 96.014C114.338 95.7682 113.913 95.621 113.404 95.5723C112.766 95.5114 112.107 95.6619 111.426 96.0236C110.788 96.3468 110.107 96.7938 109.383 97.3649C110.274 97.7487 111.611 98.0259 113.395 98.1963ZM107.128 104.896C107.553 104.936 108.148 104.801 108.914 104.49C109.722 104.141 110.552 103.665 111.404 103.064C112.256 102.462 113.022 101.81 113.705 101.107C113.918 100.914 114.131 100.678 114.344 100.4C114.558 100.079 114.792 99.7595 115.048 99.4425L113.518 99.4884C111.139 99.6026 109.015 99.5917 107.146 99.4558C106.206 100.903 105.629 102.128 105.413 103.132C105.369 103.682 105.516 104.102 105.855 104.39C106.194 104.679 106.619 104.847 107.128 104.896ZM117.332 109.136C117.035 109.107 116.887 108.837 116.889 108.325C116.89 107.898 116.977 107.394 117.149 106.813C117.363 106.236 117.598 105.704 117.855 105.216C118.239 104.527 118.817 103.302 119.587 101.541C120.485 99.6205 121.234 98.0915 121.832 96.9536C122.431 95.7731 123.007 94.8892 123.561 94.3019C124.158 93.6334 124.627 93.3154 124.967 93.3478C125.179 93.3681 125.348 93.5337 125.475 93.8445C125.601 94.1127 125.664 94.4174 125.663 94.7588C125.662 95.1001 125.619 95.3094 125.534 95.3866C125.193 95.6955 124.745 96.2289 124.19 96.9868C123.635 97.7447 123.123 98.5067 122.653 99.2727C121.756 100.852 121.306 102.046 121.304 102.857C121.303 102.942 121.303 103.028 121.303 103.113C121.345 103.202 121.387 103.292 121.429 103.381C121.94 103.174 122.408 102.962 122.833 102.747C123.259 102.532 123.749 102.216 124.302 101.799L128.2 98.5862C128.626 98.2428 129.009 97.9593 129.35 97.7357C129.69 97.5122 129.967 97.3252 130.18 97.1749C130.606 96.9168 131.01 96.806 131.392 96.8425C131.732 96.8749 132.135 97.1268 132.601 97.5981C132.812 97.8317 132.917 98.4179 132.914 99.3565L132.908 100.957C132.908 101.127 132.886 101.296 132.843 101.462C132.843 101.59 132.842 101.74 132.842 101.91C132.84 102.465 132.902 102.962 133.028 103.401C133.197 103.801 133.43 104.015 133.727 104.044C133.855 104.056 134.025 103.965 134.238 103.772L136.028 101.831C137.521 100.223 138.671 99.053 139.481 98.3194C140.291 97.5858 141.206 97.1184 142.226 96.9171C142.353 96.8866 142.46 96.8754 142.545 96.8835C142.672 96.853 142.778 96.8418 142.863 96.8499C143.246 96.8865 143.564 97.0449 143.818 97.3252C144.114 97.6096 144.198 97.9591 144.069 98.3736C143.897 99.04 143.661 99.807 143.361 100.675C143.103 101.504 142.868 102.164 142.654 102.656C142.141 103.631 141.883 104.417 141.881 105.015C141.88 105.399 142.028 105.669 142.325 105.825C142.664 105.986 142.983 106.101 143.28 106.173C143.619 106.248 143.789 106.349 143.789 106.477C144.639 106.26 145.277 106.171 145.701 106.212C146.126 106.252 146.232 106.412 146.018 106.69C145.805 106.926 145.422 107.209 144.869 107.541C144.315 107.872 143.698 108.154 143.018 108.388C142.38 108.583 141.806 108.657 141.296 108.608C140.234 108.506 139.705 107.88 139.709 106.728C139.711 106.13 139.798 105.584 139.969 105.088C140.571 102.969 140.873 101.589 140.875 100.949C140.877 100.309 140.708 99.973 140.368 99.9406C139.604 99.8676 137.963 101.247 135.448 104.08C135.192 104.354 134.894 104.646 134.553 104.955C134.254 105.268 133.913 105.577 133.53 105.881C133.019 106.302 132.529 106.746 132.06 107.213C131.804 107.445 131.464 107.541 131.039 107.5C130.147 107.415 129.66 107.048 129.577 106.4C129.537 105.713 129.496 105.155 129.455 104.724C129.457 104.255 129.458 103.935 129.458 103.764C129.377 102.646 129.315 101.894 129.274 101.506C129.233 101.118 129.042 100.907 128.703 100.875C128.278 100.834 127.214 101.416 125.511 102.619C123.211 104.234 121.102 106.081 119.184 108.16C118.374 108.851 117.757 109.176 117.332 109.136ZM149.981 110.846C149.089 110.761 148.304 110.451 147.626 109.917C146.524 108.958 145.976 107.625 145.982 105.918C145.987 104.212 146.587 102.455 147.783 100.649C148.978 98.8425 150.789 97.2443 153.215 95.8542C153.641 95.5961 154.215 95.5015 154.937 95.5705C155.871 95.6598 156.698 95.9949 157.419 96.5759C158.182 97.1609 158.477 97.8506 158.305 98.6451C158.003 99.9393 157.341 101.05 156.318 101.976C155.338 102.907 154.167 103.713 152.805 104.394C151.486 105.036 150.125 105.653 148.721 106.244C148.678 106.368 148.635 106.492 148.592 106.616C148.592 106.744 148.591 106.872 148.591 107C148.589 107.597 148.779 108.149 149.159 108.655C149.583 109.122 150.155 109.39 150.877 109.459C151.43 109.512 151.897 109.471 152.28 109.337C152.96 109.146 153.513 108.964 153.939 108.791C154.406 108.622 154.938 108.353 155.534 107.983C156.13 107.613 156.939 107.051 157.961 106.295C158.43 105.998 158.706 105.854 158.791 105.862C159.046 105.886 159.131 106.086 159.044 106.462C158.617 107.104 157.872 107.78 156.807 108.489C155.785 109.202 154.636 109.797 153.36 110.272C152.127 110.752 151 110.943 149.981 110.846ZM149.109 104.553C149.448 104.585 150.15 104.311 151.214 103.729C152.278 103.148 153.279 102.497 154.216 101.776C155.835 100.436 156.645 99.3615 156.648 98.5508C156.649 98.3375 156.585 98.1394 156.459 97.9566C156.332 97.7311 156.141 97.6061 155.886 97.5818C155.079 97.5047 153.717 98.3349 151.8 100.072C150.479 101.227 149.582 102.72 149.109 104.553ZM159.297 112.056C158.532 111.983 158.151 111.648 158.153 111.05C158.154 110.666 158.283 110.188 158.54 109.615C158.839 109.046 159.138 108.498 159.437 107.972C160.249 106.598 160.997 105.261 161.681 103.961C162.365 102.661 163.028 101.273 163.67 99.7977C163.969 99.1435 164.416 98.8447 165.011 98.9015C165.648 98.9624 165.838 99.3647 165.58 100.108C165.324 100.724 165.067 101.276 164.81 101.763C163.613 104.082 163.014 105.668 163.011 106.521C163.01 106.905 163.136 107.152 163.391 107.261C163.987 106.849 164.434 106.55 164.732 106.365C165.03 106.138 165.201 106.004 165.243 105.966C165.839 105.553 166.499 105.083 167.223 104.555C167.99 103.988 168.82 103.341 169.715 102.616C171.121 101.47 172.291 100.941 173.225 101.031C174.372 101.14 174.857 102.232 174.68 104.307C174.635 105.113 174.633 105.903 174.673 106.675C174.715 106.849 174.735 107.107 174.734 107.449C174.733 107.747 174.732 108.11 174.731 108.537C174.729 108.963 174.983 109.201 175.493 109.25C176.088 109.306 176.64 109.189 177.151 108.896L178.556 108.07L179.96 107.308C180.045 107.273 180.194 107.266 180.406 107.286C180.661 107.311 180.661 107.503 180.405 107.862C177.718 110.935 175.504 112.388 173.763 112.221C173.423 112.189 173.084 112.092 172.744 111.932C172.447 111.776 172.236 111.393 172.111 110.783C171.985 110.131 171.902 109.44 171.862 108.711C171.865 107.985 171.866 107.431 171.868 107.047L171.938 104.941C171.941 104.045 171.709 103.575 171.241 103.53C170.137 103.424 167.412 105.447 163.065 109.599C162.724 109.993 162.191 110.518 161.466 111.175C160.742 111.831 160.019 112.125 159.297 112.056ZM181.127 119.071C180.914 119.05 180.809 118.848 180.81 118.464C180.81 118.379 180.811 118.251 180.811 118.08C180.854 117.956 180.897 117.811 180.94 117.644L183.702 110.994L186.977 103.24C186.467 103.149 185.724 103.099 184.747 103.091C183.769 103.041 182.941 103.047 182.261 103.11C182.006 103.128 181.794 103.151 181.623 103.177C181.496 103.165 181.39 103.155 181.305 103.147C180.965 103.114 180.732 102.943 180.606 102.632C180.649 102.38 180.883 102.168 181.309 101.995C181.521 101.93 181.776 101.89 182.074 101.876C182.371 101.819 182.733 101.768 183.158 101.723C183.625 101.683 184.029 101.657 184.369 101.647C184.751 101.641 185.027 101.625 185.197 101.598C185.41 101.576 185.622 101.553 185.835 101.531C186.047 101.509 186.302 101.49 186.6 101.476C186.855 101.458 187.131 101.441 187.428 101.427C187.726 101.413 188.045 101.379 188.385 101.326C188.726 100.89 189.238 100.106 189.922 98.9765C190.605 97.8467 191.481 96.3512 192.549 94.49C193.403 92.9925 194.087 91.8201 194.599 90.9728C195.155 90.0868 195.539 89.5047 195.752 89.2263C196.136 88.7508 196.583 88.5374 197.093 88.5861C197.347 88.6105 197.474 88.7293 197.474 88.9426C197.474 88.9853 197.367 89.2525 197.153 89.7442C196.896 90.1465 196.469 90.8953 195.871 91.9905C195.273 93.0857 194.631 94.2835 193.947 95.5839C193.264 96.8843 192.644 98.1055 192.088 99.2474C191.532 100.389 191.147 101.227 190.932 101.762C191.145 101.739 191.379 101.74 191.634 101.765C191.931 101.793 192.292 101.828 192.717 101.868C193.184 101.913 193.608 101.975 193.991 102.054C194.415 102.095 194.776 102.15 195.073 102.221C195.668 102.406 195.964 102.605 195.964 102.819C195.963 102.904 195.772 103.035 195.389 103.212C195.176 103.277 194.773 103.324 194.178 103.352C193.583 103.381 192.797 103.391 191.82 103.383C191.565 103.359 191.289 103.354 190.991 103.368C190.694 103.339 190.375 103.33 190.035 103.341C188.754 105.31 187.002 108.621 184.778 113.274C183.966 114.818 183.346 116.018 182.918 116.873C182.491 117.728 182.234 118.237 182.149 118.4C181.765 118.875 181.424 119.099 181.127 119.071Z" fill="black"/>
<path d="M7.00477 154.487C7.00477 155.96 8.19868 157.154 9.67144 157.154C11.1442 157.154 12.3381 155.96 12.3381 154.487C12.3381 153.015 11.1442 151.821 9.67144 151.821C8.19868 151.821 7.00477 153.015 7.00477 154.487ZM198.344 95.9987C198.344 97.4715 199.538 98.6654 201.011 98.6654C202.484 98.6654 203.678 97.4715 203.678 95.9987C203.678 94.526 202.484 93.3321 201.011 93.3321C199.538 93.3321 198.344 94.526 198.344 95.9987ZM10.0026 154.113C6.94396 151.409 4.79103 148.98 3.43529 146.808C2.0795 144.635 1.5392 142.748 1.65214 141.11C1.87539 137.873 4.70218 135.285 9.91259 133.293C15.0883 131.316 22.4204 130.008 31.2358 129.217C40.043 128.426 50.2969 128.154 61.2981 128.232C83.3005 128.387 108.26 129.942 130.557 131.536C152.84 133.13 172.482 134.765 183.811 135.076L183.838 134.077C172.539 133.766 152.939 132.134 130.628 130.539C108.33 128.944 83.3423 127.388 61.3051 127.232C50.2865 127.154 39.9976 127.426 31.1464 128.221C22.3034 129.014 14.8617 130.332 9.55563 132.359C4.28425 134.374 0.921329 137.172 0.654505 141.041C0.522403 142.957 1.16197 145.054 2.5869 147.337C4.01188 149.621 6.24053 152.122 9.34026 154.862L10.0026 154.113ZM183.811 135.076C195.126 135.387 202.85 135.002 207.819 133.759C210.306 133.136 212.15 132.288 213.411 131.165C214.687 130.028 215.338 128.633 215.473 126.995C215.607 125.378 215.238 123.542 214.524 121.494C213.808 119.441 212.733 117.136 211.418 114.573C210.104 112.01 208.54 109.168 206.845 106.044C205.148 102.917 203.316 99.501 201.458 95.7756L200.563 96.2219C202.429 99.9631 204.268 103.391 205.966 106.521C207.665 109.653 209.221 112.479 210.529 115.03C211.837 117.58 212.887 119.836 213.579 121.823C214.273 123.813 214.593 125.497 214.476 126.913C214.361 128.308 213.821 129.461 212.746 130.419C211.654 131.391 209.985 132.186 207.576 132.789C202.753 133.995 195.152 134.388 183.838 134.077L183.811 135.076Z" fill="black"/>
<path d="M36.7007 15.6198L75.6003 18.6005L104.87 69.8324L128.203 31.7647L127.982 87.2135L101.399 130.761L36.7007 15.6198ZM133.181 133.197L133.619 23.0461L170.201 25.8492L169.763 136L133.181 133.197ZM36.1799 125.764L36.5773 25.8234L70.5306 85.9665L70.3619 128.383L36.1799 125.764Z" fill="black" fill-opacity="0.3"/>
</svg>
